<svg width="300" height="299" viewBox="0 0 300 299" fill="none" xmlns="http://www.w3.org/2000/svg">
<path d="M273.18 128.331C272.55 127.045 272.43 125.789 272.31 124.444C269.94 99.1484 257.55 79.8928 236.49 65.9594C234.6 64.7036 233.49 63.1189 232.41 61.295C225.39 49.3948 216.69 38.9597 205.56 30.6176C186.96 16.6842 170.46 16.2656 153.18 29.5711C149.97 32.0229 147.96 31.8435 144.63 29.9299C124.14 18.1194 105 20.3918 87.57 36.4182C79.02 44.2819 71.37 52.9529 65.55 63.089C64.8 64.4345 63.81 65.4212 62.43 66.1687C46.47 74.8995 35.76 88.3545 28.29 104.56C24.75 112.245 22.32 120.288 24.21 128.959C24.54 130.454 24.18 131.889 23.64 133.324C19.68 143.52 18.45 154.194 18.84 165.078C18.84 168.217 18.6 171.417 18.9 174.526C19.86 185.081 21.81 195.426 28.2 204.187C30.63 207.506 31.62 210.915 32.52 214.742C36.87 233.1 46.14 248.349 62.67 258.306C66.78 260.788 70.74 263.419 74.49 266.379C87.3 276.545 101.49 280.552 117.54 275.289C119.22 274.751 120.69 274.901 122.34 275.319C130.53 277.382 138.54 276.784 145.95 272.598C148.86 270.954 150.9 271.223 153.63 273.017C161.88 278.429 170.76 280.97 180.6 277.382C182.1 276.844 183.57 277.053 185.07 277.322C203.52 280.881 219.84 273.675 229.23 257.648C230.61 255.316 232.35 253.881 234.66 252.595C247.83 245.24 258.99 235.403 265.02 221.529C268.98 212.439 273.48 203.41 276.39 193.991C283.11 171.985 283.62 149.769 273.18 128.331ZM144.75 65.9594C143.85 73.0457 144.42 80.3413 144.63 87.5771C144.75 90.896 143.94 92.5106 140.31 93.4076C127.68 96.5172 117.12 103.245 108.78 113.231C105.06 117.716 104.94 121.424 108.36 124.234C111.6 126.896 115.2 126.148 118.8 121.932C124.29 115.534 130.83 110.66 138.81 107.7C144.57 105.577 144.6 105.577 144.6 111.437C144.63 122.411 144.6 133.354 144.6 144.327H144.57C144.57 155.57 144.42 166.842 144.66 178.114C144.75 182.33 143.52 182.27 140.07 180.985C128.58 176.769 121.92 169.742 124.05 156.646C124.5 153.835 124.29 150.935 124.35 148.095C124.44 143.669 122.13 140.859 118.35 140.65C114.6 140.44 111.48 143.042 111.21 147.228C110.7 154.882 110.13 162.536 111.66 170.131C112.2 172.702 111.27 173.958 109.35 175.304C104.1 178.922 99 182.689 94.53 187.144C90.57 191.121 90.12 194.709 93.06 197.759C96.03 200.838 100.02 200.39 104.04 196.503C108.03 192.616 112.59 189.416 117.03 186.068C118.74 184.782 120.09 184.812 121.83 186.038C127.77 190.194 134.31 193.274 141.06 195.875C143.49 196.802 144.6 197.968 144.57 200.749C144.45 215.16 144.57 229.572 144.48 243.984C144.45 249.755 134.43 256.721 128.85 255.047C127.23 254.539 126.84 253.492 126.81 251.997C126.66 244.612 126.06 237.316 123.72 230.26C123.18 228.675 123.84 227.688 124.71 226.612C126.45 224.519 128.28 222.516 129.81 220.303C132.03 217.104 131.64 213.905 128.67 211.453C125.73 209.031 122.55 209.36 119.67 211.871C119.55 211.991 119.4 212.051 119.34 212.2C116.1 218.419 111.27 218.808 105.15 216.745C101.46 215.489 98.01 218.12 97.29 221.559C96.42 225.655 98.16 228.376 102.45 229.632C110.85 232.084 112.02 233.519 112.77 242.31C112.92 244.104 113.04 245.898 113.22 247.692C113.97 254.27 112.86 255.436 106.11 256.004C99.03 256.632 93.21 253.672 87.75 249.725C82.71 246.077 77.79 242.429 72.3 239.26C61.32 232.861 55.8 221.798 53.01 209.509C52.5 207.267 53.97 206.639 55.65 206.041C60.48 204.337 65.19 202.363 69.51 199.553C75.3 195.845 77.19 190.672 75.81 184.064C73.8 174.526 69.6 165.945 64.8 157.573C62.7 153.895 58.83 152.938 55.53 154.882C52.17 156.855 51.21 160.384 53.31 164.271C56.79 170.789 59.94 177.367 62.25 184.393C63.15 187.084 62.49 188.699 59.94 189.745L55.02 191.988C47.1 195.247 45.33 194.769 42.87 186.666C38.28 171.476 38.49 156.227 43.35 141.068C44.73 136.763 47.46 135.297 51.87 134.58C60.81 133.115 67.32 135.985 72.69 142.952C76.38 147.706 80.04 152.46 82.89 157.782C84.99 161.759 88.74 163.284 92.19 161.669C95.76 159.995 96.87 155.928 94.68 151.683C90.48 143.46 84.9 136.254 78.45 129.616C71.07 122.082 62.22 119.749 52.05 121.304C44.64 122.44 44.16 121.872 46.89 115.055C50.94 104.949 57.39 96.577 65.58 89.4608C68.07 87.2781 69.57 86.8296 70.89 90.5671C72.24 94.3943 74.37 97.8926 77.07 100.972C81.24 105.756 86.37 106.803 92.1 103.992C96.45 101.839 100.14 98.67 103.56 95.2913C110.13 88.8927 116.64 82.4044 123.12 75.9161C126.57 72.4477 126.78 69.069 123.9 65.9893C121.26 63.1787 117.15 63.1189 113.88 66.2584C106.59 73.2251 99.57 80.4609 92.25 87.3977C86.67 92.6601 86.58 92.3312 83.19 85.514C81.06 81.2084 81.45 77.5905 83.85 73.6736C89.64 64.2252 96.93 56.0924 105.45 49.036C112.53 43.2055 120.36 42.4281 128.73 45.747C130.83 46.5842 132.78 47.7204 134.76 48.7968C141.66 52.4446 145.86 57.2585 144.75 65.9594ZM256.08 188.041C253.98 194.559 253.23 194.649 247.08 192.197C237.51 188.37 237.33 188.101 241.32 178.652C243.3 173.958 245.67 169.443 247.89 164.839C250.02 160.443 249.12 156.497 245.58 154.673C242.13 152.879 238.47 154.194 236.22 158.291C231.51 166.842 227.22 175.573 225.51 185.35C224.55 190.852 226.23 195.068 230.49 198.446C234.81 201.885 239.85 203.858 244.89 205.832C246.93 206.609 247.95 207.386 247.02 209.719C242.55 220.901 234.15 228.346 224.01 234.177C222.3 235.134 221.25 234.237 220.29 232.861C217.59 229.034 214.38 225.566 210.57 222.875C208.08 221.11 208.02 219.167 208.56 216.685C209.16 213.755 209.82 210.825 210.15 207.835C210.54 203.948 208.62 201.466 204.75 200.868C200.85 200.24 198.33 202.154 197.22 205.742C196.26 208.851 197.13 213.217 194.58 214.921C192.33 216.386 188.46 215.37 185.34 215.579C183.84 215.699 182.37 216.057 180.93 216.446C176.64 217.612 174.69 220.453 175.35 224.34C175.98 228.047 179.07 230.469 183.45 229.423C195.72 226.522 203.55 232.502 210.24 241.592C212.01 243.984 211.74 245.808 210.21 248.08C204.33 256.811 194.88 259.711 185.37 254.927C181.5 252.984 178.65 252.505 175.59 255.944C173.55 258.246 170.91 258.157 168.12 256.931C160.29 253.552 158.04 250.084 158.07 241.532C158.13 223.502 158.04 205.473 158.1 187.473C158.13 181.493 158.64 181.044 164.67 181.912C170.28 182.719 175.41 184.692 179.73 188.519C183.45 191.779 187.47 191.868 190.14 188.968C193.08 185.739 192.57 182.061 188.46 178.413C181.32 172.045 172.86 168.756 163.35 168.666C159.09 168.636 158.34 167.021 157.92 163.164C156.75 152.52 158.19 144.417 170.43 140.5C175.5 138.885 178.65 137.839 182.4 141.756C184.05 143.49 186.06 144.895 187.83 146.48C191.4 149.679 194.91 149.859 197.82 146.929C200.49 144.238 200.25 140.171 197.13 136.912C193.89 133.503 190.17 130.693 186.3 128.062C184.35 126.716 183.66 125.311 183.81 122.859C184.11 117.926 184.05 112.932 183.84 107.999C183.66 103.304 180.99 100.793 176.82 100.942C172.65 101.092 170.58 103.693 170.64 108.597C170.7 111.288 170.49 114.039 170.82 116.7C171.69 123.607 168.48 127.613 162.3 130.214C159.12 131.59 158.01 131.351 158.04 127.733C158.13 117.357 158.07 107.012 158.07 96.6368V92.1219H158.13C158.13 80.8496 158.22 69.6072 158.07 58.3349C158.04 55.2552 159.03 52.9529 161.13 50.7104C172.5 38.9896 180.42 38.2421 193.32 48.0792C202.29 54.9263 209.19 63.5973 214.83 73.3148C216.18 75.6171 215.85 76.9028 213.75 78.5174C207.27 83.5406 205.17 83.8695 198.03 79.7433C193.11 76.9028 189.09 73.1952 186.57 67.9926C184.38 63.5076 180.75 62.0126 177.09 63.8963C173.52 65.7202 172.41 69.2484 174.42 73.554C180.06 85.5439 190.08 92.3013 202.41 95.8893C205.71 96.8461 209.34 96.278 212.55 94.6634C215.22 93.288 217.92 91.8827 220.38 90.1784C228.42 84.6768 228.42 84.617 235.32 91.8528C242.16 99.0288 247.26 107.251 249.96 116.879C250.86 119.989 250.29 121.304 246.69 120.916C236.07 119.779 227.7 124.085 220.77 131.889C215.55 137.749 210.84 143.968 207.18 150.905C204.75 155.54 205.59 159.726 209.16 161.49C212.91 163.344 216.63 161.729 219 157.184C222.84 149.739 227.88 143.251 234.06 137.66C241.95 130.543 253.89 133.563 256.83 143.699C261.06 158.47 260.82 173.36 256.08 188.041Z" fill="#DB7878"/>
</svg>
